<?xml version="1.0" encoding="UTF-8" standalone="no"?>
<svg
   xmlns:dc="http://purl.org/dc/elements/1.1/"
   xmlns:cc="http://creativecommons.org/ns#"
   xmlns:rdf="http://www.w3.org/1999/02/22-rdf-syntax-ns#"
   xmlns:svg="http://www.w3.org/2000/svg"
   xmlns="http://www.w3.org/2000/svg"
   xmlns:xlink="http://www.w3.org/1999/xlink"
   xmlns:sodipodi="http://sodipodi.sourceforge.net/DTD/sodipodi-0.dtd"
   xmlns:inkscape="http://www.inkscape.org/namespaces/inkscape"
   width="72"
   height="72"
   viewBox="0 0 72 72"
   version="1.1"
   id="svg27"
   sodipodi:docname="pantry-logo.svg"
   inkscape:version="0.92.2 5c3e80d, 2017-08-06">
  <metadata
     id="metadata31">
    <rdf:RDF>
      <cc:Work
         rdf:about="">
        <dc:format>image/svg+xml</dc:format>
        <dc:type
           rdf:resource="http://purl.org/dc/dcmitype/StillImage" />
        <dc:title>pantry-logo</dc:title>
      </cc:Work>
    </rdf:RDF>
  </metadata>
  <sodipodi:namedview
     pagecolor="#ffffff"
     bordercolor="#666666"
     borderopacity="1"
     objecttolerance="10"
     gridtolerance="10"
     guidetolerance="10"
     inkscape:pageopacity="0"
     inkscape:pageshadow="2"
     inkscape:window-width="1198"
     inkscape:window-height="942"
     id="namedview29"
     showgrid="false"
     inkscape:zoom="1.0322581"
     inkscape:cx="30.03125"
     inkscape:cy="36"
     inkscape:window-x="1280"
     inkscape:window-y="204"
     inkscape:window-maximized="0"
     inkscape:current-layer="Pantry-logo" />
  <title
     id="title2">pantry-logo</title>
  <defs
     id="defs5">
    <ellipse
       id="path-1"
       cx="36.5"
       cy="47"
       rx="4.5"
       ry="5" />
  </defs>
  <g
     id="Page-1"
     style="fill:none;fill-rule:evenodd;stroke:none;stroke-width:1">
    <g
       id="Pantry-logo"
       transform="translate(0,-9)">
      <path
         d="m 14.101369,9 h 43.797262 c 4.903354,0 6.681428,0.5105409 8.47402,1.46923 1.792593,0.958689 3.19943,2.365526 4.158119,4.158119 C 71.489459,16.419941 72,18.198015 72,23.101369 v 43.797262 c 0,4.903354 -0.510541,6.681428 -1.46923,8.47402 -0.958689,1.792593 -2.365526,3.19943 -4.158119,4.158119 C 64.580059,80.489459 62.801985,81 57.898631,81 H 14.101369 C 9.1980155,81 7.4199412,80.489459 5.6273486,79.53077 3.834756,78.572081 2.4279189,77.165244 1.4692299,75.372651 0.51054086,73.580059 0,71.801985 0,66.898631 V 23.101369 C 0,18.198015 0.51054086,16.419941 1.4692299,14.627349 2.4279189,12.834756 3.834756,11.427919 5.6273486,10.46923 7.4199412,9.5105409 9.1980155,9 14.101369,9 Z"
         id="Rectangle"
         inkscape:connector-curvature="0"
         style="fill:#7b4bdf" />
      <ellipse
         id="Oval"
         cx="36.5"
         cy="65.5"
         rx="14.5"
         ry="4.5"
         style="fill:#ffffff" />
      <rect
         id="Rectangle-2"
         x="22"
         y="25"
         width="29"
         height="42"
         rx="1.3"
         style="fill:#ffffff" />
      <path
         d="M 24,64 V 33 c 0,-0.552285 0.447715,-1 1,-1 h 23 c 0.552285,0 1,0.447715 1,1 v 31 c 0,2.209139 -5.596441,4 -12.5,4 C 29.596441,68 24,66.209139 24,64 Z"
         id="path13"
         inkscape:connector-curvature="0"
         style="fill:#7b4bdf" />
      <ellipse
         id="Oval-Copy"
         cx="36.5"
         cy="44"
         rx="14.5"
         ry="4"
         style="fill:#ffffff" />
      <rect
         id="Rectangle-3"
         x="23"
         y="28"
         width="28"
         height="16"
         rx="1"
         style="fill:#ffffff" />
      <ellipse
         id="ellipse17"
         cx="36.5"
         cy="26.5"
         rx="14.5"
         ry="4.5"
         style="fill:#ffffff" />
      <ellipse
         id="Oval-Copy-2"
         cx="36.5"
         cy="27.5"
         rx="12.5"
         ry="3.5"
         style="stroke:#7b4bdf" />
      <g
         id="Oval-2">
        <use
           xlink:href="#path-1"
           id="use20"
           style="fill:#7b4bdf;fill-rule:evenodd"
           x="0"
           y="0"
           width="100%"
           height="100%" />
        <ellipse
           cx="36.5"
           cy="47"
           rx="5"
           ry="5.5"
           id="ellipse22"
           style="stroke:#ffffff;stroke-width:1" />
      </g>
    </g>
  </g>
</svg>
