<?xml version="1.0" encoding="UTF-8"?>
<svg width="279px" height="72px" viewBox="0 0 279 72" version="1.1" xmlns="http://www.w3.org/2000/svg" xmlns:xlink="http://www.w3.org/1999/xlink">
    <title>pantry-logo</title>
    <defs>
        <ellipse id="path-1" cx="36.5" cy="47" rx="4.5" ry="5"></ellipse>
    </defs>
    <g id="Page-1" stroke="none" stroke-width="1" fill="none" fill-rule="evenodd">
        <g id="Pantry-logo" transform="translate(0.000000, -9.000000)">
            <text id="pantry" font-family="CircularStd-Black, Circular Std" font-size="64" font-weight="700" letter-spacing="-0.0977777764" fill="#333333">
                <tspan x="78.3653333" y="64">pantry</tspan>
            </text>
            <path d="M14.1013686,9 L57.8986314,9 C62.8019845,9 64.5800588,9.51054086 66.3726514,10.4692299 C68.165244,11.4279189 69.5720811,12.834756 70.5307701,14.6273486 C71.4894591,16.4199412 72,18.1980155 72,23.1013686 L72,66.8986314 C72,71.8019845 71.4894591,73.5800588 70.5307701,75.3726514 C69.5720811,77.165244 68.165244,78.5720811 66.3726514,79.5307701 C64.5800588,80.4894591 62.8019845,81 57.8986314,81 L14.1013686,81 C9.19801553,81 7.41994122,80.4894591 5.62734863,79.5307701 C3.83475604,78.5720811 2.42791888,77.165244 1.46922987,75.3726514 C0.510540861,73.5800588 0,71.8019845 0,66.8986314 L0,23.1013686 C0,18.1980155 0.510540861,16.4199412 1.46922987,14.6273486 C2.42791888,12.834756 3.83475604,11.4279189 5.62734863,10.4692299 C7.41994122,9.51054086 9.19801553,9 14.1013686,9 Z" id="Rectangle" fill="#7B4BDF"></path>
            <ellipse id="Oval" fill="#FFFFFF" cx="36.5" cy="65.5" rx="14.5" ry="4.5"></ellipse>
            <rect id="Rectangle-2" fill="#FFFFFF" x="22" y="25" width="29" height="42" rx="1.29999995"></rect>
            <path d="M24,64 L24,33 C24,32.4477153 24.4477153,32 25,32 L48,32 C48.5522847,32 49,32.4477153 49,33 L49,64 C49,66.209139 43.4035594,68 36.5,68 C29.5964406,68 24,66.209139 24,64 Z" id="Oval" fill="#7B4BDF"></path>
            <ellipse id="Oval-Copy" fill="#FFFFFF" cx="36.5" cy="44" rx="14.5" ry="4"></ellipse>
            <rect id="Rectangle-3" fill="#FFFFFF" x="23" y="28" width="28" height="16" rx="1"></rect>
            <ellipse id="Oval" fill="#FFFFFF" cx="36.5" cy="26.5" rx="14.5" ry="4.5"></ellipse>
            <ellipse id="Oval-Copy-2" stroke="#7B4BDF" cx="36.5" cy="27.5" rx="12.5" ry="3.5"></ellipse>
            <g id="Oval-2">
                <use fill="#7B4BDF" fill-rule="evenodd" xlink:href="#path-1"></use>
                <ellipse stroke="#FFFFFF" stroke-width="1" cx="36.5" cy="47" rx="5" ry="5.5"></ellipse>
            </g>
        </g>
    </g>
</svg>
